# xmcd
#
# Track frame offsets: 
#        150
#        16012
#        34015
#        53610
#        66950
#        83087
#        111392
#        135517
#        158562
#        182990
#        205237
#        230645
#        249982
#        266467
#        296967
#
# Disc length: 4135 seconds
#
# Revision: 0
# Processed by: cddbd v1.5.2PL0 Copyright (c) Steve Scherf et al.
# Submitted via: ExactAudioCopy v0.95b3
#
DISCID=cd10250f
DTITLE=Gogol Bordello - Super Taranta
DYEAR=2007
DGENRE=Punk
TTITLE0=Ultimate
TTITLE1=Wonderlust King
TTITLE2=Zina-Maria
TTITLE3=Supertheory of Everything
TTITLE4=Harem in Tuscany (Taranta)
TTITLE5=Dub the Frequencies of Love
TTITLE6=My strange Uncles from Abroad
TTITLE7=Tribal Connection
TTITLE8=Forces of Victory
TTITLE9=Alcohol
TTITLE10=Suddenly (I Miss Carpaty)
TTITLE11=Your Country
TTITLE12=American Wedding
TTITLE13=Super Taranta
TTITLE14=Hidden Track
EXTD=
EXTT0=
EXTT1=
EXTT2=
EXTT3=
EXTT4=
EXTT5=
EXTT6=
EXTT7=
EXTT8=
EXTT9=
EXTT10=
EXTT11=
EXTT12=
EXTT13=
EXTT14=
PLAYORDER=
